<!-- registers — exported from krakow-touristification.html, build d1f99b7, 2026-09-02.
     Generated by scripts/extract-chart-svgs.mjs. Edit the React component,
     rebuild and re-export; do not hand-edit this file. -->
<svg xmlns="http://www.w3.org/2000/svg" width="1000" height="600" viewBox="0 0 1000 600">
  <title>Two registers, one process. Rent pressure, short-term rental and distrust of the city sit at the same level in all three districts. Noise and the sense of losing a home fan out sharply: Kazimierz at one end, Podgórze at the other.</title>
  <rect width="1000" height="600" fill="#ededed" /><g><circle cx="367" cy="32" r="7" fill="#191714"></circle><text x="384" y="38" font-family="Noirden" font-size="15px" letter-spacing=".1em" fill="#595653">OLD TOWN</text></g><g><rect x="535.5" y="25.5" width="13" height="13" fill="#191714"></rect><text x="559" y="38" font-family="Noirden" font-size="15px" letter-spacing=".1em" fill="#595653">KAZIMIERZ</text></g><g><path d="M 717 24 L 724.5 37.5 L 709.5 37.5 Z" fill="#191714"></path><text x="734" y="38" font-family="Noirden" font-size="15px" letter-spacing=".1em" fill="#595653">PODGÓRZE</text></g><g><line x1="360" y1="76" x2="360" y2="556" stroke="#d4d4d4" stroke-width="1"></line><text x="360" y="68" text-anchor="middle" font-family="Noirden" font-size="15px" letter-spacing=".1em" fill="#595653">1</text></g><g><line x1="490" y1="76" x2="490" y2="556" stroke="#d4d4d4" stroke-width="1"></line><text x="490" y="68" text-anchor="middle" font-family="Noirden" font-size="15px" letter-spacing=".1em" fill="#595653">2</text></g><g><line x1="620" y1="76" x2="620" y2="556" stroke="#d4d4d4" stroke-width="1"></line><text x="620" y="68" text-anchor="middle" font-family="Noirden" font-size="15px" letter-spacing=".1em" fill="#595653">3</text></g><g><line x1="750" y1="76" x2="750" y2="556" stroke="#d4d4d4" stroke-width="1"></line><text x="750" y="68" text-anchor="middle" font-family="Noirden" font-size="15px" letter-spacing=".1em" fill="#595653">4</text></g><g><line x1="880" y1="76" x2="880" y2="556" stroke="#d4d4d4" stroke-width="1"></line><text x="880" y="68" text-anchor="middle" font-family="Noirden" font-size="15px" letter-spacing=".1em" fill="#595653">5</text></g><text x="880" y="580" text-anchor="end" font-family="Noirden" font-size="15px" letter-spacing=".1em" fill="#595653">MEAN AGREEMENT (1–5)</text><text x="990" y="68" text-anchor="end" font-family="Noirden" font-size="15px" letter-spacing=".1em" fill="#595653">ε²</text><g><text x="0" y="130" font-family="Noirden" font-size="15px" letter-spacing=".14em" fill="#191714">ONE REGISTER REACHES THE WHOLE CITY</text><text x="0" y="152" font-family="Noirden" font-size="15px" letter-spacing=".1em" fill="#595653">Identical wherever you live</text><g><text x="330" y="197" text-anchor="end" font-family="Noirden" font-size="17px" fill="#191714">Tourism drives up rents</text><line x1="789" y1="192" x2="808.5" y2="192" stroke="#d4d4d4" stroke-width="1.5"></line><circle cx="805.9" cy="192" r="7" fill="#191714"></circle><rect x="802" y="185.5" width="13" height="13" fill="#191714"></rect><path d="M 789 184 L 796.5 197.5 L 781.5 197.5 Z" fill="#191714"></path><text x="990" y="197" text-anchor="end" font-family="Noirden" font-size="15px" fill="#595653">0.003</text></g><g><text x="330" y="251" text-anchor="end" font-family="Noirden" font-size="17px" fill="#191714">Short-term rental is a problem</text><line x1="718.8" y1="246" x2="751.3" y2="246" stroke="#d4d4d4" stroke-width="1.5"></line><circle cx="751.3" cy="246" r="7" fill="#191714"></circle><rect x="742.2" y="239.5" width="13" height="13" fill="#191714"></rect><path d="M 718.8 238 L 726.3 251.5 L 711.3 251.5 Z" fill="#191714"></path><text x="990" y="251" text-anchor="end" font-family="Noirden" font-size="15px" fill="#595653">0.010</text></g><g><text x="330" y="305" text-anchor="end" font-family="Noirden" font-size="17px" fill="#191714">The city manages tourism well</text><line x1="488.7" y1="300" x2="521.2" y2="300" stroke="#d4d4d4" stroke-width="1.5"></line><circle cx="488.7" cy="300" r="7" fill="#191714"></circle><rect x="497.79999999999995" y="293.5" width="13" height="13" fill="#191714"></rect><path d="M 521.2 292 L 528.7 305.5 L 513.7 305.5 Z" fill="#191714"></path><text x="990" y="305" text-anchor="end" font-family="Noirden" font-size="15px" fill="#595653">0.003</text></g></g><g><text x="0" y="382" font-family="Noirden" font-size="15px" letter-spacing=".14em" fill="#191714">ONE TRACKS THE DISTRICT&#x27;S PHASE</text><text x="0" y="404" font-family="Noirden" font-size="15px" letter-spacing=".1em" fill="#595653">Graded by how far touristification has gone</text><g><text x="330" y="449" text-anchor="end" font-family="Noirden" font-size="17px" fill="#191714">An attraction, not a home</text><line x1="592.7" y1="444" x2="740.9000000000001" y2="444" stroke="#d4d4d4" stroke-width="1.5"></line><circle cx="740.9000000000001" cy="444" r="7" fill="#191714"></circle><rect x="716.2" y="437.5" width="13" height="13" fill="#191714"></rect><path d="M 592.7 436 L 600.2 449.5 L 585.2 449.5 Z" fill="#191714"></path><text x="990" y="449" text-anchor="end" font-family="Noirden" font-size="17px" font-weight="700" fill="#2352c5">0.148</text></g><g><text x="330" y="503" text-anchor="end" font-family="Noirden" font-size="17px" fill="#191714">Noise disrupts sleep</text><line x1="551.1" y1="498" x2="720.1" y2="498" stroke="#d4d4d4" stroke-width="1.5"></line><circle cx="660.3" cy="498" r="7" fill="#191714"></circle><rect x="713.6" y="491.5" width="13" height="13" fill="#191714"></rect><path d="M 551.1 490 L 558.6 503.5 L 543.6 503.5 Z" fill="#191714"></path><text x="990" y="503" text-anchor="end" font-family="Noirden" font-size="17px" font-weight="700" fill="#2352c5">0.177</text></g></g></svg>
